# xmcd CD database file
#
# Track frame offsets:
#	150
#	61691
#	103225
#	128184
#	162415
#	171569
#	187192
#	253031
#	268035
#	292161
#	298793
#	310565
#
# Disc length: 4550 seconds
#
# Revision: 2
# Processed by: cddbd v1.5.2PL0 Copyright (c) Steve Scherf et al.
# Submitted via: CDex 1.51
#
DISCID=c011c40c
DTITLE=Liszt - L'Oeuvre pour Piano - France Clidat  [CD 08-14]
DYEAR=1971
DGENRE=Piano
TTITLE0=Polonaise  N°1 en ut mineur, S.223
TTITLE1=Polonaise  N°2 en mi majeur, S.223
TTITLE2=Marche solennelle de Goethe, S.227
TTITLE3=Czárdás macabre, S.224
TTITLE4=Czárdás  (allegro), S.225-1
TTITLE5=Czárdás obstiné, S.225-2
TTITLE6=Scherzo et Marche, S.177
TTITLE7=Galop chromatique en mi bémol majeur, S.219
TTITLE8=Galop en la mineur, S.218
TTITLE9=Feuille d'album en forme de valse, S.166
TTITLE10=Feuille d'album  (en la mineur), S.165
TTITLE11=Valse-impromptu, S.213
EXTD=YEAR: 1971
EXTT0=
EXTT1=
EXTT2=
EXTT3=
EXTT4=
EXTT5=
EXTT6=
EXTT7=
EXTT8=
EXTT9=
EXTT10=
EXTT11=
PLAYORDER=
